<?xml version="1.0" standalone="no"?>
<!DOCTYPE svg PUBLIC "-//W3C//DTD SVG 20010904//EN"
 "http://www.w3.org/TR/2001/REC-SVG-20010904/DTD/svg10.dtd">
<svg version="1.0" xmlns="http://www.w3.org/2000/svg"
 width="68.000000pt" height="64.000000pt" viewBox="0 0 68.000000 64.000000"
 preserveAspectRatio="xMidYMid meet">

<g transform="translate(0.000000,64.000000) scale(0.100000,-0.100000)"
fill="#000000" stroke="none">
<path d="M250 370 c0 -5 26 -49 57 -97 32 -48 72 -123 89 -166 17 -43 34 -80
37 -83 3 -4 21 -1 39 5 24 8 34 18 35 33 4 43 57 62 88 32 14 -14 20 -15 41
-4 13 8 24 18 24 24 0 33 -109 162 -172 202 -73 47 -238 85 -238 54z"/>
</g>
</svg>
